#!OML:ASF X:\für Bonn\!DataBase\2005_08_10_Bjorn_Final\c3d\bjorn.ASF
:FULLY-SPECIFIED
:DEGREES
169
root 0.674857 19.676 1.40184 -172.291 -5.82243 179.293
lowerback -1.6917 1.00316 4.96248
upperback 7.41314 0.529368 0.362547
thorax 8.835 0.396659 -2.37339
lowerneck -7.90574 -8.39682 -2.18927
upperneck 1.77357 -11.2106 4.58891
head 2.33773 -5.49348 1.30976
rclavicle 6.16232e-015 2.8625e-014
rhumerus 80.3611 -1.09749 -75.1575
rradius 8.70449
rwrist 49.7271
rhand -10.3707 7.89531
rfingers 7.12502
rthumb 15.6266 -21.4935
lclavicle 6.16232e-015 2.8625e-014
lhumerus 81.3569 -7.10628 53.1729
lradius 12.2193
lwrist -36.8359
lhand -17.1596 -8.4851
lfingers 7.12502
lthumb 9.08131 21.2994
rfemur -19.166 -14.5205 17.2204
rtibia 33.6778
rfoot -10.5498 11.1805
rtoes -25.5001
lfemur -14.3035 5.58118 -17.3846
ltibia 29.6545
lfoot -9.17803 -10.712
ltoes -12.6083
170
root 0.681453 19.6571 1.36075 -172.274 -5.70211 179.191
lowerback -2.0242 1.0101 4.80261
upperback 7.30731 0.564343 0.277319
thorax 8.91349 0.416324 -2.36784
lowerneck -7.75173 -8.43814 -2.33281
upperneck 1.74754 -11.2596 4.72637
head 2.32269 -5.5178 1.38114
rclavicle 4.17448e-015 1.03368e-014
rhumerus 80.5061 -1.05881 -75.1741
rradius 8.74474
rwrist 49.8229
rhand -10.0272 7.82236
rfingers 7.12502
rthumb 15.9574 -21.5403
lclavicle 4.17448e-015 1.03368e-014
lhumerus 81.523 -6.98562 53.5851
lradius 12.1916
lwrist -37.3508
lhand -17.5062 -8.28149
lfingers 7.12502
lthumb 8.74692 21.5173
rfemur -18.9063 -15.3513 17.1382
rtibia 33.4576
rfoot -10.4909 12.1252
rtoes -23.9981
lfemur -13.9724 5.95551 -17.4809
ltibia 29.3772
lfoot -9.48475 -10.8835
ltoes -11.4716
171
root 0.687539 19.6341 1.32072 -172.246 -5.607 179.175
lowerback -2.35815 1.0217 4.74118
upperback 7.18207 0.600635 0.202526
thorax 8.97452 0.442867 -2.40591
lowerneck -7.68449 -8.48926 -2.47057
upperneck 1.8647 -11.326 4.86526
head 2.37194 -5.54672 1.44447
rclavicle 2.08724e-014 1.63003e-014
rhumerus 80.5983 -1.03777 -75.2053
rradius 8.77039
rwrist 50.0025
rhand -9.89779 7.75003
rfingers 7.12502
rthumb 16.0821 -21.6026
lclavicle 2.08724e-014 1.63003e-014
lhumerus 81.79 -6.92869 53.4848
lradius 12.0649
lwrist -37.3794
lhand -17.9959 -8.00547
lfingers 7.12502
lthumb 8.27431 21.8125
rfemur -18.6697 -16.2225 17.1584
rtibia 33.2502
rfoot -10.4285 13.129
rtoes -22.5683
lfemur -13.7301 6.37242 -17.48
ltibia 29.1991
lfoot -9.86579 -11.1108
ltoes -10.5032
172
root 0.693827 19.6048 1.28288 -172.193 -5.51961 179.192
lowerback -2.71142 1.04197 4.70825
upperback 7.06107 0.643669 0.139846
thorax 9.05319 0.474146 -2.44604
lowerneck -7.6934 -8.549 -2.51302
upperneck 2.02012 -11.4078 4.89369
head 2.43391 -5.58371 1.45223
rclavicle 5.76476e-015 1.98785e-014
rhumerus 80.7141 -1.04127 -75.2272
rradius 8.73164
rwrist 50.1482
rhand -9.96478 7.67476
rfingers 7.12502
rthumb 16.0176 -21.6831
lclavicle 5.76476e-015 1.98785e-014
lhumerus 82.0614 -6.87909 53.5253
lradius 11.9774
lwrist -37.579
lhand -18.4191 -7.6908
lfingers 7.12502
lthumb 7.86582 22.1429
rfemur -18.4836 -17.0753 17.2232
rtibia 33.0648
rfoot -10.3656 14.1844
rtoes -20.8751
lfemur -13.5719 6.85561 -17.44
ltibia 29.0993
lfoot -10.2472 -11.4437
ltoes -9.33837
173
root 0.699942 19.5722 1.24813 -172.124 -5.45754 179.22
lowerback -3.05891 1.03967 4.70032
upperback 6.94854 0.652574 0.0782067
thorax 9.13601 0.489788 -2.50273
lowerneck -7.81475 -8.59775 -2.57824
upperneck 2.23153 -11.4743 4.93006
head 2.53711 -5.61073 1.46097
rclavicle -6.55989e-015 -1.98785e-015
rhumerus 80.8635 -1.00907 -75.2694
rradius 8.65517
rwrist 50.2552
rhand -10.173 7.5968
rfingers 7.12502
rthumb 15.817 -21.7771
lclavicle -6.55989e-015 -1.98785e-015
lhumerus 82.2989 -6.78854 53.5612
lradius 11.9345
lwrist -37.8265
lhand -18.4698 -7.52683
lfingers 7.12502
lthumb 7.81688 22.3087
rfemur -18.3451 -17.8503 17.3085
rtibia 32.9151
rfoot -10.3069 15.1888
rtoes -19.0188
lfemur -13.4753 7.38029 -17.3926
ltibia 29.0565
lfoot -10.6911 -11.8214
ltoes -8.48276
174
root 0.707032 19.5396 1.21574 -172.071 -5.40104 179.266
lowerback -3.38277 1.05199 4.70422
upperback 6.87142 0.673918 0.0322674
thorax 9.24546 0.510559 -2.54826
lowerneck -8.10827 -8.67025 -2.61052
upperneck 2.54037 -11.5727 4.89529
head 2.69899 -5.65105 1.42997
rclavicle -1.98785e-016 -2.42517e-014
rhumerus 81.061 -1.00975 -75.2852
rradius 8.53515
rwrist 50.2981
rhand -10.4837 7.49747
rfingers 7.12502
rthumb 15.5178 -21.8998
lclavicle -1.98785e-016 -2.42517e-014
lhumerus 82.529 -6.70054 53.7671
lradius 11.98
lwrist -38.2773
lhand -17.9645 -7.56751
lfingers 7.12502
lthumb 8.30461 22.2492
rfemur -18.2609 -18.6806 17.4209
rtibia 32.8259
rfoot -10.2719 16.2174
rtoes -17.4441
lfemur -13.3944 8.04594 -17.316
ltibia 29.038
lfoot -11.1066 -12.3475
ltoes -7.56217
